<?xml version="1.0" encoding="UTF-8" standalone="no"?>
<!-- Created with Inkscape (http://www.inkscape.org/) -->

<svg
        xmlns:dc="http://purl.org/dc/elements/1.1/"
        xmlns:cc="http://creativecommons.org/ns#"
        xmlns:rdf="http://www.w3.org/1999/02/22-rdf-syntax-ns#"
        xmlns:svg="http://www.w3.org/2000/svg"
        xmlns="http://www.w3.org/2000/svg"
        xmlns:sodipodi="http://sodipodi.sourceforge.net/DTD/sodipodi-0.dtd"
        xmlns:inkscape="http://www.inkscape.org/namespaces/inkscape"
        width="1000"
        height="200"
        viewBox="0 0 264.58333 52.916668"
        version="1.1"
        id="svg1571"
        inkscape:version="0.92.2 5c3e80d, 2017-08-06"
        sodipodi:docname="clear-right-obj.svg">
    <defs
            id="defs1565"/>
    <sodipodi:namedview
            id="base"
            pagecolor="#ffffff"
            bordercolor="#666666"
            borderopacity="1.0"
            inkscape:pageopacity="0.0"
            inkscape:pageshadow="2"
            inkscape:zoom="1.4"
            inkscape:cx="858.48917"
            inkscape:cy="93.60112"
            inkscape:document-units="mm"
            inkscape:current-layer="layer1"
            showgrid="false"
            units="px"
            inkscape:window-width="1280"
            inkscape:window-height="701"
            inkscape:window-x="0"
            inkscape:window-y="1"
            inkscape:window-maximized="1"
            showguides="false"/>
    <metadata
            id="metadata1568">
        <rdf:RDF>
            <cc:Work
                    rdf:about="">
                <dc:format>image/svg+xml</dc:format>
                <dc:type
                        rdf:resource="http://purl.org/dc/dcmitype/StillImage"/>
                <dc:title></dc:title>
            </cc:Work>
        </rdf:RDF>
    </metadata>
    <g
            inkscape:label="Layer 1"
            inkscape:groupmode="layer"
            id="layer1"
            transform="translate(0,-244.08332)">
        <path
                style="opacity:1;fill:#fcd356;fill-opacity:1;stroke:none;stroke-width:0;stroke-miterlimit:4;stroke-dasharray:none"
                id="path2136"
                sodipodi:type="arc"
                sodipodi:cx="-53.098953"
                sodipodi:cy="-297.20175"
                sodipodi:rx="51.449383"
                sodipodi:ry="51.449383"
                sodipodi:start="6.2793599"
                sodipodi:end="3.1566682"
                sodipodi:open="true"
                d="m -1.6499469,-297.39857 a 51.449383,51.449383 0 0 1 -25.8346671,44.81682 51.449383,51.449383 0 0 1 -51.729028,-0.29098 51.449383,51.449383 0 0 1 -25.328848,-45.10462"
                transform="scale(-1)"/>
        <path
                style="opacity:1;fill:#e9e9e9;fill-opacity:0.9372549;stroke:none;stroke-width:0;stroke-miterlimit:4;stroke-dasharray:none"
                id="path2484"
                sodipodi:type="arc"
                sodipodi:cx="-119.96751"
                sodipodi:cy="-300.41345"
                sodipodi:rx="40.284893"
                sodipodi:ry="35.677883"
                sodipodi:start="6.2793599"
                sodipodi:end="3.1566682"
                sodipodi:open="true"
                d="m -79.682908,-300.54993 a 40.284893,35.677883 0 0 1 -20.228558,31.07849 40.284893,35.677883 0 0 1 -40.503854,-0.20179 40.284893,35.677883 0 0 1 -19.8325,-31.27807"
                transform="matrix(-0.99957034,0.02931088,-0.05307365,-0.9985906,0,0)"/>
        <path
                transform="scale(-1)"
                d="m -94.254044,-297.95248 a 41.810989,35.810143 0 0 1 -20.994866,31.1937 41.810989,35.810143 0 0 1 -42.03825,-0.20253 41.810989,35.810143 0 0 1 -20.58381,-31.39402"
                sodipodi:open="true"
                sodipodi:end="3.1566682"
                sodipodi:start="6.2793599"
                sodipodi:ry="35.810143"
                sodipodi:rx="41.810989"
                sodipodi:cy="-297.81549"
                sodipodi:cx="-136.06473"
                sodipodi:type="arc"
                id="path2450"
                style="opacity:1;fill:#ffffff;fill-opacity:1;stroke:none;stroke-width:0;stroke-miterlimit:4;stroke-dasharray:none"/>
        <path
                transform="matrix(-0.99949012,0.0319296,-0.04872768,-0.9988121,0,0)"
                d="m -42.031797,-316.65647 a 38.304428,36.946571 0 0 1 -19.234092,32.18362 38.304428,36.946571 0 0 1 -38.512626,-0.20895 38.304428,36.946571 0 0 1 -18.857505,-32.39031"
                sodipodi:open="true"
                sodipodi:end="3.1566682"
                sodipodi:start="6.2793599"
                sodipodi:ry="36.946571"
                sodipodi:rx="38.304428"
                sodipodi:cy="-316.51514"
                sodipodi:cx="-80.335945"
                sodipodi:type="arc"
                id="path2488"
                style="opacity:1;fill:#e9e9e9;fill-opacity:0.9372549;stroke:none;stroke-width:0;stroke-miterlimit:4;stroke-dasharray:none"/>
        <path
                transform="matrix(-0.99930649,0.03723629,-0.04178878,-0.99912647,0,0)"
                d="m -149.30962,-304.5615 a 39.168495,44.045174 0 0 1 -19.66797,38.36712 39.168495,44.045174 0 0 1 -39.38139,-0.24911 39.168495,44.045174 0 0 1 -19.28289,-38.6135"
                sodipodi:open="true"
                sodipodi:end="3.1566682"
                sodipodi:start="6.2793599"
                sodipodi:ry="44.045174"
                sodipodi:rx="39.168495"
                sodipodi:cy="-304.39301"
                sodipodi:cx="-188.47783"
                sodipodi:type="arc"
                id="path2454"
                style="opacity:1;fill:#e9e9e9;fill-opacity:0.9372549;stroke:none;stroke-width:0;stroke-miterlimit:4;stroke-dasharray:none"/>
        <path
                style="opacity:1;fill:#ffffff;fill-opacity:1;stroke:none;stroke-width:0;stroke-miterlimit:4;stroke-dasharray:none"
                id="path2452"
                sodipodi:type="arc"
                sodipodi:cx="-201.26561"
                sodipodi:cy="-298.15448"
                sodipodi:rx="39.732121"
                sodipodi:ry="43.411636"
                sodipodi:start="6.2793599"
                sodipodi:end="3.1566682"
                sodipodi:open="true"
                d="m -161.53378,-298.32055 a 39.732121,43.411636 0 0 1 -19.95099,37.81525 39.732121,43.411636 0 0 1 -39.94808,-0.24552 39.732121,43.411636 0 0 1 -19.56037,-38.05809"
                transform="scale(-1)"/>
        <path
                style="opacity:1;fill:#ffffff;fill-opacity:1;stroke:none;stroke-width:0;stroke-miterlimit:4;stroke-dasharray:none"
                id="path2486"
                sodipodi:type="arc"
                sodipodi:cx="-97.511154"
                sodipodi:cy="-314.06848"
                sodipodi:rx="41.810989"
                sodipodi:ry="35.810143"
                sodipodi:start="6.2793599"
                sodipodi:end="3.1566682"
                sodipodi:open="true"
                d="m -55.700471,-314.20547 a 41.810989,35.810143 0 0 1 -20.994867,31.1937 41.810989,35.810143 0 0 1 -42.038252,-0.20253 41.810989,35.810143 0 0 1 -20.5838,-31.39402"
                transform="scale(-1)"/>
        <path
                style="opacity:1;fill:#e9e9e9;fill-opacity:0.9372549;stroke:none;stroke-width:0;stroke-miterlimit:4;stroke-dasharray:none"
                id="path2492"
                sodipodi:type="arc"
                sodipodi:cx="-228.35472"
                sodipodi:cy="-318.47192"
                sodipodi:rx="31.772909"
                sodipodi:ry="37.272717"
                sodipodi:start="6.2793599"
                sodipodi:end="3.1566682"
                sodipodi:open="true"
                d="m -196.58204,-318.61451 a 31.772909,37.272717 0 0 1 -15.95438,32.46773 31.772909,37.272717 0 0 1 -31.9456,-0.2108 31.772909,37.272717 0 0 1 -15.642,-32.67623"
                transform="matrix(-0.99023251,0.13942587,-0.11895747,-0.99289935,0,0)"/>
        <path
                transform="matrix(-0.54769248,0.83667972,-0.8379558,-0.54573811,0,0)"
                d="m 131.33087,-387.95903 a 39.661221,43.378628 0 0 1 -19.91539,37.7865 39.661221,43.378628 0 0 1 -39.876794,-0.24534 39.661221,43.378628 0 0 1 -19.525463,-38.02915"
                sodipodi:open="true"
                sodipodi:end="3.1566682"
                sodipodi:start="6.2793599"
                sodipodi:ry="43.378628"
                sodipodi:rx="39.661221"
                sodipodi:cy="-387.79309"
                sodipodi:cx="91.669937"
                sodipodi:type="arc"
                id="path2490"
                style="opacity:1;fill:#ffffff;fill-opacity:1;stroke:none;stroke-width:0;stroke-miterlimit:4;stroke-dasharray:none"/>
    </g>
</svg>
