<?xml version="1.0" encoding="UTF-8" standalone="no"?>
<!-- Created with Inkscape (http://www.inkscape.org/) -->

<svg
   xmlns:dc="http://purl.org/dc/elements/1.1/"
   xmlns:cc="http://creativecommons.org/ns#"
   xmlns:rdf="http://www.w3.org/1999/02/22-rdf-syntax-ns#"
   xmlns:svg="http://www.w3.org/2000/svg"
   xmlns="http://www.w3.org/2000/svg"
   xmlns:sodipodi="http://sodipodi.sourceforge.net/DTD/sodipodi-0.dtd"
   xmlns:inkscape="http://www.inkscape.org/namespaces/inkscape"
   width="1000"
   height="1000"
   viewBox="0 0 264.58333 264.58334"
   version="1.1"
   id="svg898"
   inkscape:version="0.92.2 5c3e80d, 2017-08-06"
   sodipodi:docname="cloud-bg.svg">
  <defs
     id="defs892" />
  <sodipodi:namedview
     id="base"
     pagecolor="#ffffff"
     bordercolor="#666666"
     borderopacity="1.0"
     inkscape:pageopacity="0.0"
     inkscape:pageshadow="2"
     inkscape:zoom="0.32"
     inkscape:cx="439.04363"
     inkscape:cy="543.42232"
     inkscape:document-units="mm"
     inkscape:current-layer="layer1"
     showgrid="false"
     units="px"
     inkscape:window-width="1280"
     inkscape:window-height="702"
     inkscape:window-x="0"
     inkscape:window-y="1"
     inkscape:window-maximized="1" />
  <metadata
     id="metadata895">
    <rdf:RDF>
      <cc:Work
         rdf:about="">
        <dc:format>image/svg+xml</dc:format>
        <dc:type
           rdf:resource="http://purl.org/dc/dcmitype/StillImage" />
        <dc:title />
      </cc:Work>
    </rdf:RDF>
  </metadata>
  <g
     inkscape:label="Layer 1"
     inkscape:groupmode="layer"
     id="layer1"
     transform="translate(0,-32.41665)">
    <rect
       style="opacity:1;fill:#a2dcff;fill-opacity:1;stroke:none;stroke-width:0;stroke-miterlimit:4;stroke-dasharray:none"
       id="rect1443"
       width="266.09521"
       height="264.58331"
       x="5.4495672e-07"
       y="32.416649" />
    <path
       style="opacity:1;fill:#acacac;fill-opacity:1;stroke:none;stroke-width:0.26499999;stroke-miterlimit:4;stroke-dasharray:none;stroke-opacity:1"
       id="path862"
       sodipodi:type="arc"
       sodipodi:cx="36.398762"
       sodipodi:cy="113.41926"
       sodipodi:rx="45.018211"
       sodipodi:ry="45.018211"
       sodipodi:start="0.22488218"
       sodipodi:end="0.041928743"
       sodipodi:open="true"
       d="M 80.283432,123.45794 A 45.018211,45.018211 0 0 1 28.377094,157.71703 45.018211,45.018211 0 0 1 -8.2194484,107.43138 45.018211,45.018211 0 0 1 40.340325,68.57393 45.018211,45.018211 0 0 1 81.377407,115.30626" />
    <path
       d="M 76.165184,122.56605 A 45.018211,45.018211 0 0 1 24.258846,156.82513 45.018211,45.018211 0 0 1 -12.337696,106.53949 45.018211,45.018211 0 0 1 36.222077,67.682039 45.018211,45.018211 0 0 1 77.259159,114.41437"
       sodipodi:open="true"
       sodipodi:end="0.041928743"
       sodipodi:start="0.22488218"
       sodipodi:ry="45.018211"
       sodipodi:rx="45.018211"
       sodipodi:cy="112.52737"
       sodipodi:cx="32.280514"
       sodipodi:type="arc"
       id="path860"
       style="opacity:1;fill:#dadada;fill-opacity:1;stroke:none;stroke-width:0.26499999;stroke-miterlimit:4;stroke-dasharray:none;stroke-opacity:1" />
    <path
       d="M 79.895039,55.693758 A 45.018211,45.018211 0 0 1 27.988701,89.952846 45.018211,45.018211 0 0 1 -8.6078418,39.667202 45.018211,45.018211 0 0 1 39.951931,0.80975096 45.018211,45.018211 0 0 1 80.989014,47.542083"
       sodipodi:open="true"
       sodipodi:end="0.041928743"
       sodipodi:start="0.22488218"
       sodipodi:ry="45.018211"
       sodipodi:rx="45.018211"
       sodipodi:cy="45.655079"
       sodipodi:cx="36.010368"
       sodipodi:type="arc"
       id="path866"
       style="opacity:1;fill:#acacac;fill-opacity:1;stroke:none;stroke-width:0.26499999;stroke-miterlimit:4;stroke-dasharray:none;stroke-opacity:1" />
    <path
       style="opacity:1;fill:#dadada;fill-opacity:1;stroke:none;stroke-width:0.26499999;stroke-miterlimit:4;stroke-dasharray:none;stroke-opacity:1"
       id="path858"
       sodipodi:type="arc"
       sodipodi:cx="31.247866"
       sodipodi:cy="46.713413"
       sodipodi:rx="45.018211"
       sodipodi:ry="45.018211"
       sodipodi:start="0.22488218"
       sodipodi:end="0.041928743"
       sodipodi:open="true"
       d="M 75.132536,56.752092 A 45.018211,45.018211 0 0 1 23.226198,91.011181 45.018211,45.018211 0 0 1 -13.370345,40.725536 45.018211,45.018211 0 0 1 35.189428,1.8680853 45.018211,45.018211 0 0 1 76.226511,48.600417" />
    <path
       style="opacity:1;fill:#acacac;fill-opacity:1;stroke:none;stroke-width:0.26671523;stroke-miterlimit:4;stroke-dasharray:none;stroke-opacity:1"
       id="path868"
       sodipodi:type="arc"
       sodipodi:cx="107.70063"
       sodipodi:cy="23.020102"
       sodipodi:rx="45.602863"
       sodipodi:ry="45.018211"
       sodipodi:start="0.22488218"
       sodipodi:end="0.041928743"
       sodipodi:open="true"
       d="M 152.15523,33.05878 A 45.602863,45.018211 0 0 1 99.574785,67.317869 45.602863,45.018211 0 0 1 62.502963,17.032224 a 45.602863,45.018211 0 0 1 49.190417,-38.85745 45.602863,45.018211 0 0 1 41.57003,46.732332" />
    <path
       d="M 149.94233,30.412945 A 45.018211,45.018211 0 0 1 98.035996,64.672033 45.018211,45.018211 0 0 1 61.439453,14.386388 45.018211,45.018211 0 0 1 109.99923,-24.471062 45.018211,45.018211 0 0 1 151.03631,22.26127"
       sodipodi:open="true"
       sodipodi:end="0.041928743"
       sodipodi:start="0.22488218"
       sodipodi:ry="45.018211"
       sodipodi:rx="45.018211"
       sodipodi:cy="20.374266"
       sodipodi:cx="106.05766"
       sodipodi:type="arc"
       id="path870"
       style="opacity:1;fill:#dadada;fill-opacity:1;stroke:none;stroke-width:0.26499999;stroke-miterlimit:4;stroke-dasharray:none;stroke-opacity:1" />
    <path
       d="m 211.56367,-160.64376 a 45.602863,45.018211 0 0 1 -52.58044,34.25909 45.602863,45.018211 0 0 1 -37.07183,-50.28564 45.602863,45.018211 0 0 1 49.19042,-38.85745 45.602863,45.018211 0 0 1 41.57003,46.73233"
       sodipodi:open="true"
       sodipodi:end="0.041928743"
       sodipodi:start="0.22488218"
       sodipodi:ry="45.018211"
       sodipodi:rx="45.602863"
       sodipodi:cy="-170.68243"
       sodipodi:cx="167.10907"
       sodipodi:type="arc"
       id="path872"
       style="opacity:1;fill:#acacac;fill-opacity:1;stroke:none;stroke-width:0.26671523;stroke-miterlimit:4;stroke-dasharray:none;stroke-opacity:1"
       transform="rotate(51.713223)" />
    <path
       style="opacity:1;fill:#dadada;fill-opacity:1;stroke:none;stroke-width:0.26499999;stroke-miterlimit:4;stroke-dasharray:none;stroke-opacity:1"
       id="path874"
       sodipodi:type="arc"
       sodipodi:cx="165.46609"
       sodipodi:cy="-173.32826"
       sodipodi:rx="45.018211"
       sodipodi:ry="45.018211"
       sodipodi:start="0.22488218"
       sodipodi:end="0.041928743"
       sodipodi:open="true"
       d="m 209.35077,-163.28958 a 45.018211,45.018211 0 0 1 -51.90634,34.25909 45.018211,45.018211 0 0 1 -36.59655,-50.28565 45.018211,45.018211 0 0 1 48.55978,-38.85745 45.018211,45.018211 0 0 1 41.03708,46.73233"
       transform="rotate(51.713223)" />
    <path
       d="m 323.23918,-104.61787 a 45.602863,45.018211 0 0 1 -52.58045,34.25909 45.602863,45.018211 0 0 1 -37.07182,-50.28564 45.602863,45.018211 0 0 1 49.19042,-38.85746 45.602863,45.018211 0 0 1 41.57003,46.73234"
       sodipodi:open="true"
       sodipodi:end="0.041928743"
       sodipodi:start="0.22488218"
       sodipodi:ry="45.018211"
       sodipodi:rx="45.602863"
       sodipodi:cy="-114.65655"
       sodipodi:cx="278.78458"
       sodipodi:type="arc"
       id="path880"
       style="opacity:1;fill:#acacac;fill-opacity:1;stroke:none;stroke-width:0.26671523;stroke-miterlimit:4;stroke-dasharray:none;stroke-opacity:1"
       transform="rotate(51.713223)" />
    <path
       style="opacity:1;fill:#dadada;fill-opacity:1;stroke:none;stroke-width:0.26499999;stroke-miterlimit:4;stroke-dasharray:none;stroke-opacity:1"
       id="path882"
       sodipodi:type="arc"
       sodipodi:cx="280.44238"
       sodipodi:cy="-118.06766"
       sodipodi:rx="45.018211"
       sodipodi:ry="45.018211"
       sodipodi:start="0.22488218"
       sodipodi:end="0.041928743"
       sodipodi:open="true"
       d="m 324.32705,-108.02898 a 45.018211,45.018211 0 0 1 -51.90633,34.25909 45.018211,45.018211 0 0 1 -36.59655,-50.28564 45.018211,45.018211 0 0 1 48.55978,-38.85746 45.018211,45.018211 0 0 1 41.03708,46.73234"
       transform="rotate(51.713223)" />
    <path
       transform="matrix(0.64227476,0.76647448,-0.80245364,0.59671446,0,0)"
       style="opacity:1;fill:#acacac;fill-opacity:1;stroke:none;stroke-width:0.25908658;stroke-miterlimit:4;stroke-dasharray:none;stroke-opacity:1"
       id="path876"
       sodipodi:type="arc"
       sodipodi:cx="227.16051"
       sodipodi:cy="-151.25926"
       sodipodi:rx="43.99276"
       sodipodi:ry="44.034527"
       sodipodi:start="0.22488218"
       sodipodi:end="0.041928743"
       sodipodi:open="true"
       d="m 270.04555,-141.43994 a 43.99276,44.034527 0 0 1 -50.72399,33.5105 43.99276,44.034527 0 0 1 -35.76292,-49.18686 43.99276,44.034527 0 0 1 47.45365,-38.00838 43.99276,44.034527 0 0 1 40.10231,45.71119" />
    <path
       transform="rotate(51.713223)"
       d="m 275.6213,-151.63315 a 45.018211,45.018211 0 0 1 -51.90633,34.25909 45.018211,45.018211 0 0 1 -36.59655,-50.28565 45.018211,45.018211 0 0 1 48.55978,-38.85745 45.018211,45.018211 0 0 1 41.03708,46.73233"
       sodipodi:open="true"
       sodipodi:end="0.041928743"
       sodipodi:start="0.22488218"
       sodipodi:ry="45.018211"
       sodipodi:rx="45.018211"
       sodipodi:cy="-161.67183"
       sodipodi:cx="231.73663"
       sodipodi:type="arc"
       id="path878"
       style="opacity:1;fill:#dadada;fill-opacity:1;stroke:none;stroke-width:0.26499999;stroke-miterlimit:4;stroke-dasharray:none;stroke-opacity:1" />
  </g>
</svg>
