<?xml version="1.0" encoding="UTF-8" standalone="no"?>
<svg
   xmlns:sketch="http://www.bohemiancoding.com/sketch/ns"
   xmlns:dc="http://purl.org/dc/elements/1.1/"
   xmlns:cc="http://creativecommons.org/ns#"
   xmlns:rdf="http://www.w3.org/1999/02/22-rdf-syntax-ns#"
   xmlns:svg="http://www.w3.org/2000/svg"
   xmlns="http://www.w3.org/2000/svg"
   xmlns:xlink="http://www.w3.org/1999/xlink"
   xmlns:sodipodi="http://sodipodi.sourceforge.net/DTD/sodipodi-0.dtd"
   xmlns:inkscape="http://www.inkscape.org/namespaces/inkscape"
   id="svg159"
   version="1.1"
   viewBox="0 0 200 417.996"
   height="417.996"
   width="200"
   sodipodi:docname="clear-bg.svg"
   inkscape:export-filename="/Users/ruhel/Desktop/Year 2/Semester 2/Graphical User Interface/Coursework/Stage 1/Design-plain.png"
   inkscape:export-xdpi="399.84"
   inkscape:export-ydpi="399.84"
   inkscape:version="0.92.2 5c3e80d, 2017-08-06">
  <sodipodi:namedview
     pagecolor="#ffffff"
     bordercolor="#666666"
     borderopacity="1"
     objecttolerance="10"
     gridtolerance="10"
     guidetolerance="10"
     inkscape:pageopacity="0"
     inkscape:pageshadow="2"
     inkscape:window-width="1280"
     inkscape:window-height="701"
     id="namedview55"
     showgrid="false"
     inkscape:zoom="1.5969263"
     inkscape:cx="46.198967"
     inkscape:cy="140.78407"
     inkscape:window-x="0"
     inkscape:window-y="1"
     inkscape:window-maximized="1"
     inkscape:current-layer="Page-1" />
  <metadata
     id="metadata163">
    <rdf:RDF>
      <cc:Work
         rdf:about="">
        <dc:format>image/svg+xml</dc:format>
        <dc:type
           rdf:resource="http://purl.org/dc/dcmitype/StillImage" />
        <dc:title>IPAD 2</dc:title>
      </cc:Work>
    </rdf:RDF>
  </metadata>
  <!-- Generator: Sketch 3.0.4 (8054) - http://www.bohemiancoding.com/sketch -->
  <title
     id="title126">IPAD 2</title>
  <desc
     id="desc128">Created with Sketch.</desc>
  <defs
     id="defs130">
    <linearGradient
       id="linearGradient4574">
      <stop
         id="stop4570"
         offset="0"
         style="stop-color:#42a1d9;stop-opacity:1" />
      <stop
         id="stop4572"
         offset="1"
         style="stop-color:#70c3db;stop-opacity:1" />
    </linearGradient>
    <linearGradient
       gradientTransform="matrix(0.55349224,0,0,0.55349224,1.858938,89.066711)"
       gradientUnits="userSpaceOnUse"
       y2="392.51532"
       x2="-330.77728"
       y1="17.299017"
       x1="-323.77698"
       id="linearGradient4582"
       xlink:href="#linearGradient4574" />
    <linearGradient
       y2="392.51532"
       x2="-330.77728"
       y1="17.299017"
       x1="-323.77698"
       gradientTransform="matrix(0.35217619,0,0,0.47380188,178.41029,30.226562)"
       gradientUnits="userSpaceOnUse"
       id="linearGradient4641"
       xlink:href="#linearGradient4574" />
    <linearGradient
       inkscape:collect="always"
       xlink:href="#linearGradient4574"
       id="linearGradient890"
       gradientUnits="userSpaceOnUse"
       gradientTransform="matrix(0.35217619,0,0,0.47380188,178.41029,30.226562)"
       x1="-323.77698"
       y1="17.299017"
       x2="-330.77728"
       y2="392.51532" />
  </defs>
  <g
     transform="translate(1.8499989e-8,-33.451573)"
     style="fill:none;fill-rule:evenodd;stroke:none;stroke-width:1"
     sketch:type="MSPage"
     id="Page-1">
    <g
       style="stroke:none"
       transform="matrix(1.7905142,0,0,2.1018822,-16.199467,-42.432604)"
       sketch:type="MSLayerGroup"
       id="iphone">
      <rect
         style="fill:#194eb7;fill-opacity:1;stroke:none"
         height="199.084"
         width="111.93"
         y="36"
         x="9"
         sketch:type="MSShapeGroup"
         id="rect150" />
      <rect
         y="36.494995"
         x="9.4888134"
         height="181.63391"
         width="110.94033"
         id="rect847"
         style="opacity:1;fill:url(#linearGradient890);fill-opacity:1;stroke:none;stroke-width:0;stroke-miterlimit:4;stroke-dasharray:none" />
      <path
         d="M 8.9397312,184.28048 A 35.961315,31.979506 0 0 1 49.003252,173.35477 35.961315,31.979506 0 0 1 73.501671,203.58831 35.961315,31.979506 0 0 1 49.169055,233.92755 35.961315,31.979506 0 0 1 9.0461959,223.17542"
         id="path4595"
         style="opacity:1;fill:#fcd356;fill-opacity:1;stroke:none;stroke-width:0;stroke-miterlimit:4;stroke-dasharray:none"
         inkscape:connector-curvature="0" />
      <path
         d="m 111.4277,-225.39464 a 31.639738,26.729626 0 0 1 -12.28844,32.06518 31.639738,26.729626 0 0 1 -39.668625,-3.58608 31.639738,26.729626 0 0 1 -3.979175,-33.53578 l 26.426608,14.69845 z"
         transform="scale(1,-1)"
         id="ellipse4560"
         style="opacity:1;fill:#e9e9e9;fill-opacity:1;stroke:none;stroke-width:0;stroke-miterlimit:4;stroke-dasharray:none"
         inkscape:connector-curvature="0" />
      <path
         d="m 120.37764,-234.85519 a 37.398293,36.44455 0 0 1 -15.74848,37.78706 37.398293,36.44455 0 0 1 -41.851822,-0.10862 37.398293,36.44455 0 0 1 -15.541723,-37.86826"
         style="opacity:1;fill:#ffffff;fill-opacity:1;stroke:none;stroke-width:0;stroke-miterlimit:4;stroke-dasharray:none"
         id="circle4558"
         transform="scale(1,-1)"
         inkscape:connector-curvature="0" />
      <path
         d="m 57.631353,-235.35193 a 25.103397,26.729626 0 0 1 -8.192044,30.69238 25.103397,26.729626 0 0 1 -29.963287,0.46996 25.103397,26.729626 0 0 1 -9.037508,-30.42214"
         style="opacity:1;fill:#e9e9e9;fill-opacity:1;stroke:none;stroke-width:0;stroke-miterlimit:4;stroke-dasharray:none"
         id="ellipse4593"
         transform="scale(1,-1)"
         inkscape:connector-curvature="0" />
      <path
         d="m 120.68712,-172.6738 a 21.331236,23.945404 0 0 1 -21.426495,-10.65573 21.331236,23.945404 0 0 1 0.218479,-26.30588 21.331236,23.945404 0 0 1 21.599756,-10.20543"
         transform="scale(1,-1)"
         id="path845"
         style="opacity:1;fill:#f6f6f6;fill-opacity:1;stroke:none;stroke-width:0;stroke-miterlimit:4;stroke-dasharray:none"
         inkscape:connector-curvature="0" />
      <path
         d="m 120.85322,-172.42568 a 23.083546,26.33094 0 0 1 -20.20367,-12.99863 23.083546,26.33094 0 0 1 -0.10266,-26.45875 23.083546,26.33094 0 0 1 20.10201,-13.20211 l -0.0925,26.33073 z"
         transform="scale(1,-1)"
         id="ellipse4591"
         style="opacity:1;fill:#ffffff;fill-opacity:1;stroke:none;stroke-width:0;stroke-miterlimit:4;stroke-dasharray:none"
         inkscape:connector-curvature="0" />
      <path
         d="m 58.660427,-234.83817 a 25.317617,27.186371 0 0 1 -10.067762,28.94987 25.317617,27.186371 0 0 1 -28.778107,0.1362 25.317617,27.186371 0 0 1 -10.3050234,-28.85344"
         transform="scale(1,-1)"
         id="ellipse4589"
         style="opacity:1;fill:#ffffff;fill-opacity:1;stroke:none;stroke-width:0;stroke-miterlimit:4;stroke-dasharray:none"
         inkscape:connector-curvature="0" />
    </g>
  </g>
</svg>
