<?xml version="1.0" encoding="UTF-8" standalone="no"?>
<!-- Created with Inkscape (http://www.inkscape.org/) -->

<svg
   xmlns:dc="http://purl.org/dc/elements/1.1/"
   xmlns:cc="http://creativecommons.org/ns#"
   xmlns:rdf="http://www.w3.org/1999/02/22-rdf-syntax-ns#"
   xmlns:svg="http://www.w3.org/2000/svg"
   xmlns="http://www.w3.org/2000/svg"
   xmlns:sodipodi="http://sodipodi.sourceforge.net/DTD/sodipodi-0.dtd"
   xmlns:inkscape="http://www.inkscape.org/namespaces/inkscape"
   width="1000"
   height="1000"
   viewBox="0 0 264.58333 264.58334"
   version="1.1"
   id="svg898"
   inkscape:version="0.92.2 5c3e80d, 2017-08-06"
   sodipodi:docname="mist-bg.svg">
  <defs
     id="defs892" />
  <sodipodi:namedview
     id="base"
     pagecolor="#ffffff"
     bordercolor="#666666"
     borderopacity="1.0"
     inkscape:pageopacity="0.0"
     inkscape:pageshadow="2"
     inkscape:zoom="1.8101934"
     inkscape:cx="928.70353"
     inkscape:cy="814.70839"
     inkscape:document-units="mm"
     inkscape:current-layer="layer1"
     showgrid="false"
     units="px"
     inkscape:window-width="1280"
     inkscape:window-height="702"
     inkscape:window-x="0"
     inkscape:window-y="1"
     inkscape:window-maximized="1" />
  <metadata
     id="metadata895">
    <rdf:RDF>
      <cc:Work
         rdf:about="">
        <dc:format>image/svg+xml</dc:format>
        <dc:type
           rdf:resource="http://purl.org/dc/dcmitype/StillImage" />
        <dc:title />
      </cc:Work>
    </rdf:RDF>
  </metadata>
  <g
     inkscape:label="Layer 1"
     inkscape:groupmode="layer"
     id="layer1"
     transform="translate(0,-32.41665)">
    <rect
       style="opacity:1;fill:#8b8b8b;fill-opacity:1;stroke:none;stroke-width:0;stroke-miterlimit:4;stroke-dasharray:none"
       id="rect1443"
       width="266.09521"
       height="264.58331"
       x="5.4495672e-07"
       y="32.416649" />
    <path
       style="opacity:0.63500001;fill:#fafafa;fill-opacity:1;stroke:none;stroke-width:0.26499999;stroke-miterlimit:4;stroke-dasharray:none;stroke-opacity:1"
       id="path914"
       sodipodi:type="arc"
       sodipodi:cx="50.864731"
       sodipodi:cy="104.59396"
       sodipodi:rx="93.544334"
       sodipodi:ry="85.3592"
       sodipodi:start="0.22488218"
       sodipodi:end="0.041928743"
       sodipodi:open="true"
       d="M 142.05366,123.62834 A 93.544334,85.3592 0 0 1 34.196331,188.58713 93.544334,85.3592 0 0 1 -41.848432,93.240327 93.544334,85.3592 0 0 1 59.054991,19.562569 93.544334,85.3592 0 0 1 144.32685,108.17192" />
    <path
       d="M 306.34089,123.09917 A 93.544334,85.3592 0 0 1 198.48356,188.05796 93.544334,85.3592 0 0 1 122.4388,92.71116 93.544334,85.3592 0 0 1 223.34222,19.033402 93.544334,85.3592 0 0 1 308.61408,107.64275"
       sodipodi:open="true"
       sodipodi:end="0.041928743"
       sodipodi:start="0.22488218"
       sodipodi:ry="85.3592"
       sodipodi:rx="93.544334"
       sodipodi:cy="104.0648"
       sodipodi:cx="215.15196"
       sodipodi:type="arc"
       id="path926"
       style="opacity:0.63500001;fill:#fafafa;fill-opacity:1;stroke:none;stroke-width:0.26499999;stroke-miterlimit:4;stroke-dasharray:none;stroke-opacity:1" />
    <path
       d="M 228.58216,11.375139 A 93.544334,85.3592 0 0 1 120.72483,76.333925 93.544334,85.3592 0 0 1 44.680071,-19.012874 93.544334,85.3592 0 0 1 145.58349,-92.690632 93.544334,85.3592 0 0 1 230.85535,-4.0812825"
       sodipodi:open="true"
       sodipodi:end="0.041928743"
       sodipodi:start="0.22488218"
       sodipodi:ry="85.3592"
       sodipodi:rx="93.544334"
       sodipodi:cy="-7.6592379"
       sodipodi:cx="137.39323"
       sodipodi:type="arc"
       id="path928"
       style="opacity:0.63500001;fill:#fafafa;fill-opacity:1;stroke:none;stroke-width:0.26499999;stroke-miterlimit:4;stroke-dasharray:none;stroke-opacity:1" />
    <path
       style="opacity:0.63500001;fill:#fafafa;fill-opacity:1;stroke:none;stroke-width:0.26499999;stroke-miterlimit:4;stroke-dasharray:none;stroke-opacity:1"
       id="path930"
       sodipodi:type="arc"
       sodipodi:cx="137.39323"
       sodipodi:cy="338.4548"
       sodipodi:rx="93.544334"
       sodipodi:ry="85.3592"
       sodipodi:start="0.22488218"
       sodipodi:end="0.041928743"
       sodipodi:open="true"
       d="m 228.58216,357.48918 a 93.544334,85.3592 0 0 1 -107.85733,64.95879 93.544334,85.3592 0 0 1 -76.044759,-95.3468 93.544334,85.3592 0 0 1 100.903419,-73.67776 93.544334,85.3592 0 0 1 85.27186,88.60935" />
    <path
       d="M 168.58593,249.59366 A 154.34814,139.73184 0 0 1 -9.3786455,355.93031 154.34814,139.73184 0 0 1 -134.8525,199.8489 154.34814,139.73184 0 0 1 31.638141,79.239417 154.34814,139.73184 0 0 1 172.3367,224.29171"
       sodipodi:open="true"
       sodipodi:end="0.041928743"
       sodipodi:start="0.22488218"
       sodipodi:ry="139.73184"
       sodipodi:rx="154.34814"
       sodipodi:cy="218.43465"
       sodipodi:cx="18.124212"
       sodipodi:type="arc"
       id="path932"
       style="opacity:0.63500001;fill:#fafafa;fill-opacity:1;stroke:none;stroke-width:0.43552226;stroke-miterlimit:4;stroke-dasharray:none;stroke-opacity:1" />
    <path
       style="opacity:0.63500001;fill:#fafafa;fill-opacity:1;stroke:none;stroke-width:0.43552226;stroke-miterlimit:4;stroke-dasharray:none;stroke-opacity:1"
       id="path934"
       sodipodi:type="arc"
       sodipodi:cx="274.78647"
       sodipodi:cy="218.63315"
       sodipodi:rx="154.34814"
       sodipodi:ry="139.73184"
       sodipodi:start="0.22488218"
       sodipodi:end="0.041928743"
       sodipodi:open="true"
       d="M 425.24819,249.79216 A 154.34814,139.73184 0 0 1 247.28361,356.12881 154.34814,139.73184 0 0 1 121.80976,200.0474 154.34814,139.73184 0 0 1 288.3004,79.437918 154.34814,139.73184 0 0 1 428.99896,224.49021" />
  </g>
</svg>
