<?xml version="1.0" encoding="UTF-8" standalone="no"?>
<!-- Created with Inkscape (http://www.inkscape.org/) -->

<svg
        xmlns:dc="http://purl.org/dc/elements/1.1/"
        xmlns:cc="http://creativecommons.org/ns#"
        xmlns:rdf="http://www.w3.org/1999/02/22-rdf-syntax-ns#"
        xmlns:svg="http://www.w3.org/2000/svg"
        xmlns="http://www.w3.org/2000/svg"
        xmlns:xlink="http://www.w3.org/1999/xlink"
        xmlns:sodipodi="http://sodipodi.sourceforge.net/DTD/sodipodi-0.dtd"
        xmlns:inkscape="http://www.inkscape.org/namespaces/inkscape"
        width="1000"
        height="1000"
        viewBox="0 0 264.58333 264.58334"
        version="1.1"
        id="svg898"
        inkscape:version="0.92.2 5c3e80d, 2017-08-06"
        sodipodi:docname="snow-bg.svg">
    <defs
            id="defs892">
        <linearGradient
                inkscape:collect="always"
                id="linearGradient1449">
            <stop
                    style="stop-color:#d5efff;stop-opacity:1"
                    offset="0"
                    id="stop1445"/>
            <stop
                    style="stop-color:#ace5ff;stop-opacity:1"
                    offset="1"
                    id="stop1447"/>
        </linearGradient>
        <linearGradient
                inkscape:collect="always"
                xlink:href="#linearGradient1449"
                id="linearGradient1453"
                gradientUnits="userSpaceOnUse"
                x1="117.92857"
                y1="27.124962"
                x2="120.95237"
                y2="323.45828"
                gradientTransform="matrix(0.8627451,0,0,0.88832487,29.34874,10.335447)"/>
    </defs>
    <sodipodi:namedview
            id="base"
            pagecolor="#ffffff"
            bordercolor="#666666"
            borderopacity="1.0"
            inkscape:pageopacity="0.0"
            inkscape:pageshadow="2"
            inkscape:zoom="0.64"
            inkscape:cx="612.94226"
            inkscape:cy="888.04611"
            inkscape:document-units="mm"
            inkscape:current-layer="layer1"
            showgrid="false"
            units="px"
            inkscape:window-width="1280"
            inkscape:window-height="701"
            inkscape:window-x="0"
            inkscape:window-y="1"
            inkscape:window-maximized="1"/>
    <metadata
            id="metadata895">
        <rdf:RDF>
            <cc:Work
                    rdf:about="">
                <dc:format>image/svg+xml</dc:format>
                <dc:type
                        rdf:resource="http://purl.org/dc/dcmitype/StillImage"/>
                <dc:title/>
            </cc:Work>
        </rdf:RDF>
    </metadata>
    <g
            inkscape:label="Layer 1"
            inkscape:groupmode="layer"
            id="layer1"
            transform="translate(0,-32.41665)">
        <rect
                style="opacity:1;fill:url(#linearGradient1453);fill-opacity:1;stroke:none;stroke-width:0;stroke-miterlimit:4;stroke-dasharray:none"
                id="rect1443"
                width="266.09521"
                height="264.58331"
                x="5.4495672e-07"
                y="32.416649"/>
        <path
                style="opacity:1;fill:#ffffff;fill-opacity:1;stroke:none;stroke-width:0;stroke-miterlimit:4;stroke-dasharray:none"
                id="path817"
                sodipodi:type="arc"
                sodipodi:cx="238.98071"
                sodipodi:cy="103.26717"
                sodipodi:rx="1.8124214"
                sodipodi:ry="1.9418801"
                sodipodi:start="3.3904565"
                sodipodi:end="3.2158089"
                d="m 237.22413,102.78888 a 1.8124214,1.9418801 0 0 1 2.12589,-1.42285 1.8124214,1.9418801 0 0 1 1.41952,2.21347 1.8124214,1.9418801 0 0 1 -2.00198,1.61608 1.8124214,1.9418801 0 0 1 -1.59428,-2.07239"
                sodipodi:open="true"/>
        <path
                sodipodi:open="true"
                d="m 246.59657,217.8528 a 2.3970735,2.5682931 0 0 1 2.81167,-1.88183 2.3970735,2.5682931 0 0 1 1.87743,2.92749 2.3970735,2.5682931 0 0 1 -2.64778,2.13739 2.3970735,2.5682931 0 0 1 -2.10857,-2.7409"
                sodipodi:end="3.2158089"
                sodipodi:start="3.3904565"
                sodipodi:ry="2.5682931"
                sodipodi:rx="2.3970735"
                sodipodi:cy="218.48538"
                sodipodi:cx="248.9198"
                sodipodi:type="arc"
                id="path819"
                style="opacity:1;fill:#ffffff;fill-opacity:1;stroke:none;stroke-width:0;stroke-miterlimit:4;stroke-dasharray:none"/>
        <path
                style="opacity:1;fill:#ffffff;fill-opacity:1;stroke:none;stroke-width:0;stroke-miterlimit:4;stroke-dasharray:none"
                id="path821"
                sodipodi:type="arc"
                sodipodi:cx="24.121075"
                sodipodi:cy="51.504578"
                sodipodi:rx="1.5200955"
                sodipodi:ry="1.6286737"
                sodipodi:start="3.3904565"
                sodipodi:end="3.2158089"
                d="m 22.647809,51.10343 a 1.5200955,1.6286737 0 0 1 1.783008,-1.193356 1.5200955,1.6286737 0 0 1 1.190563,1.856457 1.5200955,1.6286737 0 0 1 -1.679077,1.355418 1.5200955,1.6286737 0 0 1 -1.337139,-1.738134"
                sodipodi:open="true"/>
        <path
                sodipodi:open="true"
                d="m 105.6684,165.69523 a 1.5200955,1.6286737 0 0 1 1.78301,-1.19336 1.5200955,1.6286737 0 0 1 1.19057,1.85646 1.5200955,1.6286737 0 0 1 -1.67908,1.35542 1.5200955,1.6286737 0 0 1 -1.33714,-1.73814"
                sodipodi:end="3.2158089"
                sodipodi:start="3.3904565"
                sodipodi:ry="1.6286737"
                sodipodi:rx="1.5200955"
                sodipodi:cy="166.09637"
                sodipodi:cx="107.14167"
                sodipodi:type="arc"
                id="path823"
                style="opacity:1;fill:#ffffff;fill-opacity:1;stroke:none;stroke-width:0;stroke-miterlimit:4;stroke-dasharray:none"/>
        <path
                style="opacity:1;fill:#ffffff;fill-opacity:1;stroke:none;stroke-width:0;stroke-miterlimit:4;stroke-dasharray:none"
                id="path825"
                sodipodi:type="arc"
                sodipodi:cx="207.70183"
                sodipodi:cy="231.66095"
                sodipodi:rx="2.6893997"
                sodipodi:ry="2.8814995"
                sodipodi:start="3.3904565"
                sodipodi:end="3.2158089"
                d="m 205.09528,230.95123 a 2.6893997,2.8814995 0 0 1 3.15455,-2.11133 2.6893997,2.8814995 0 0 1 2.10638,3.28451 2.6893997,2.8814995 0 0 1 -2.97067,2.39804 2.6893997,2.8814995 0 0 1 -2.36571,-3.07516"
                sodipodi:open="true"/>
        <path
                sodipodi:open="true"
                d="m 81.693481,104.78128 a 1.3836764,1.4825104 0 0 1 1.622994,-1.08626 1.3836764,1.4825104 0 0 1 1.083718,1.68985 1.3836764,1.4825104 0 0 1 -1.52839,1.23378 1.3836764,1.4825104 0 0 1 -1.21714,-1.58215"
                sodipodi:end="3.2158089"
                sodipodi:start="3.3904565"
                sodipodi:ry="1.4825104"
                sodipodi:rx="1.3836764"
                sodipodi:cy="105.14642"
                sodipodi:cx="83.034531"
                sodipodi:type="arc"
                id="path827"
                style="opacity:1;fill:#ffffff;fill-opacity:1;stroke:none;stroke-width:0;stroke-miterlimit:4;stroke-dasharray:none"/>
        <path
                style="opacity:1;fill:#ffffff;fill-opacity:1;stroke:none;stroke-width:0;stroke-miterlimit:4;stroke-dasharray:none"
                id="path829"
                sodipodi:type="arc"
                sodipodi:cx="70.454765"
                sodipodi:cy="44.060703"
                sodipodi:rx="1.6662583"
                sodipodi:ry="1.7852768"
                sodipodi:start="3.3904565"
                sodipodi:end="3.2158089"
                d="m 68.83984,43.620984 a 1.6662583,1.7852768 0 0 1 1.95445,-1.308102 1.6662583,1.7852768 0 0 1 1.30504,2.034962 1.6662583,1.7852768 0 0 1 -1.840526,1.485747 1.6662583,1.7852768 0 0 1 -1.46571,-1.905263"
                sodipodi:open="true"/>
        <path
                sodipodi:open="true"
                d="m 177.59864,274.32799 a 2.1047473,2.2550864 0 0 1 2.46878,-1.65234 2.1047473,2.2550864 0 0 1 1.64847,2.57048 2.1047473,2.2550864 0 0 1 -2.32487,1.87673 2.1047473,2.2550864 0 0 1 -1.85142,-2.40665"
                sodipodi:end="3.2158089"
                sodipodi:start="3.3904565"
                sodipodi:ry="2.2550864"
                sodipodi:rx="2.1047473"
                sodipodi:cy="274.88342"
                sodipodi:cx="179.63855"
                sodipodi:type="arc"
                id="path831"
                style="opacity:1;fill:#ffffff;fill-opacity:1;stroke:none;stroke-width:0;stroke-miterlimit:4;stroke-dasharray:none"/>
        <path
                style="opacity:1;fill:#ffffff;fill-opacity:1;stroke:none;stroke-width:0;stroke-miterlimit:4;stroke-dasharray:none"
                id="path833"
                sodipodi:type="arc"
                sodipodi:cx="71.663834"
                sodipodi:cy="263.34787"
                sodipodi:rx="1.7060261"
                sodipodi:ry="1.827885"
                sodipodi:start="3.3904565"
                sodipodi:end="3.2158089"
                d="m 70.010365,262.89766 a 1.7060261,1.827885 0 0 1 2.001097,-1.33933 1.7060261,1.827885 0 0 1 1.336187,2.08353 1.7060261,1.827885 0 0 1 -1.884453,1.52121 1.7060261,1.827885 0 0 1 -1.500692,-1.95073"
                sodipodi:open="true"/>
        <path
                sodipodi:open="true"
                d="m 191.60777,149.7916 a 1.3739322,1.4720703 0 0 1 1.61157,-1.07861 1.3739322,1.4720703 0 0 1 1.07608,1.67795 1.3739322,1.4720703 0 0 1 -1.51762,1.22509 1.3739322,1.4720703 0 0 1 -1.20857,-1.57101"
                sodipodi:end="3.2158089"
                sodipodi:start="3.3904565"
                sodipodi:ry="1.4720703"
                sodipodi:rx="1.3739322"
                sodipodi:cy="150.15417"
                sodipodi:cx="192.93938"
                sodipodi:type="arc"
                id="path835"
                style="opacity:1;fill:#ffffff;fill-opacity:1;stroke:none;stroke-width:0;stroke-miterlimit:4;stroke-dasharray:none"/>
        <path
                style="opacity:1;fill:#ffffff;fill-opacity:1;stroke:none;stroke-width:0;stroke-miterlimit:4;stroke-dasharray:none"
                id="path837"
                sodipodi:type="arc"
                sodipodi:cx="28.213652"
                sodipodi:cy="187.14386"
                sodipodi:rx="1.5200953"
                sodipodi:ry="1.6286736"
                sodipodi:start="3.3904565"
                sodipodi:end="3.2158089"
                d="m 26.740386,186.74271 a 1.5200953,1.6286736 0 0 1 1.783008,-1.19335 1.5200953,1.6286736 0 0 1 1.190563,1.85645 1.5200953,1.6286736 0 0 1 -1.679077,1.35542 1.5200953,1.6286736 0 0 1 -1.337139,-1.73813"
                sodipodi:open="true"/>
        <path
                style="opacity:1;fill:#ffffff;fill-opacity:1;stroke:none;stroke-width:0;stroke-miterlimit:4;stroke-dasharray:none"
                id="path839"
                sodipodi:type="arc"
                sodipodi:cx="210.61208"
                sodipodi:cy="96.456902"
                sodipodi:rx="1.5200953"
                sodipodi:ry="1.6286736"
                sodipodi:start="3.3904565"
                sodipodi:end="3.2158089"
                d="m 209.13881,96.055754 a 1.5200953,1.6286736 0 0 1 1.78301,-1.193356 1.5200953,1.6286736 0 0 1 1.19056,1.856457 1.5200953,1.6286736 0 0 1 -1.67908,1.355418 1.5200953,1.6286736 0 0 1 -1.33714,-1.738135"
                sodipodi:open="true"/>
        <path
                sodipodi:open="true"
                d="m 26.15574,103.72212 a 1.5200953,1.6286736 0 0 1 1.783007,-1.19336 1.5200953,1.6286736 0 0 1 1.190563,1.85646 1.5200953,1.6286736 0 0 1 -1.679076,1.35542 1.5200953,1.6286736 0 0 1 -1.337139,-1.73813"
                sodipodi:end="3.2158089"
                sodipodi:start="3.3904565"
                sodipodi:ry="1.6286736"
                sodipodi:rx="1.5200953"
                sodipodi:cy="104.12327"
                sodipodi:cx="27.629005"
                sodipodi:type="arc"
                id="path841"
                style="opacity:1;fill:#ffffff;fill-opacity:1;stroke:none;stroke-width:0;stroke-miterlimit:4;stroke-dasharray:none"/>
        <path
                style="opacity:1;fill:#ffffff;fill-opacity:1;stroke:none;stroke-width:0;stroke-miterlimit:4;stroke-dasharray:none"
                id="path843"
                sodipodi:type="arc"
                sodipodi:cx="74.108849"
                sodipodi:cy="193.57504"
                sodipodi:rx="1.5200953"
                sodipodi:ry="1.6286736"
                sodipodi:start="3.3904565"
                sodipodi:end="3.2158089"
                d="m 72.635583,193.1739 a 1.5200953,1.6286736 0 0 1 1.783008,-1.19336 1.5200953,1.6286736 0 0 1 1.190562,1.85646 1.5200953,1.6286736 0 0 1 -1.679076,1.35541 1.5200953,1.6286736 0 0 1 -1.337139,-1.73813"
                sodipodi:open="true"/>
        <path
                sodipodi:open="true"
                d="m 191.61228,188.20435 a 1.5200953,1.6286736 0 0 1 1.783,-1.19335 1.5200953,1.6286736 0 0 1 1.19057,1.85645 1.5200953,1.6286736 0 0 1 -1.67908,1.35542 1.5200953,1.6286736 0 0 1 -1.33714,-1.73813"
                sodipodi:end="3.2158089"
                sodipodi:start="3.3904565"
                sodipodi:ry="1.6286736"
                sodipodi:rx="1.5200953"
                sodipodi:cy="188.6055"
                sodipodi:cx="193.08554"
                sodipodi:type="arc"
                id="path845"
                style="opacity:1;fill:#ffffff;fill-opacity:1;stroke:none;stroke-width:0;stroke-miterlimit:4;stroke-dasharray:none"/>
        <path
                sodipodi:open="true"
                d="m 52.042451,147.73218 a 1.5200953,1.6286736 0 0 1 1.783008,-1.19335 1.5200953,1.6286736 0 0 1 1.190562,1.85645 1.5200953,1.6286736 0 0 1 -1.679076,1.35542 1.5200953,1.6286736 0 0 1 -1.337139,-1.73813"
                sodipodi:end="3.2158089"
                sodipodi:start="3.3904565"
                sodipodi:ry="1.6286736"
                sodipodi:rx="1.5200953"
                sodipodi:cy="148.13333"
                sodipodi:cx="53.515717"
                sodipodi:type="arc"
                id="path847"
                style="opacity:1;fill:#ffffff;fill-opacity:1;stroke:none;stroke-width:0;stroke-miterlimit:4;stroke-dasharray:none"/>
        <path
                style="opacity:1;fill:#ffffff;fill-opacity:1;stroke:none;stroke-width:0;stroke-miterlimit:4;stroke-dasharray:none"
                id="path849"
                sodipodi:type="arc"
                sodipodi:cx="122.55543"
                sodipodi:cy="198.15611"
                sodipodi:rx="1.5200953"
                sodipodi:ry="1.6286736"
                sodipodi:start="3.3904565"
                sodipodi:end="3.2158089"
                d="m 121.08216,197.75497 a 1.5200953,1.6286736 0 0 1 1.78301,-1.19336 1.5200953,1.6286736 0 0 1 1.19056,1.85646 1.5200953,1.6286736 0 0 1 -1.67907,1.35541 1.5200953,1.6286736 0 0 1 -1.33714,-1.73813"
                sodipodi:open="true"/>
        <path
                sodipodi:open="true"
                d="m 225.67526,156.82723 a 1.5200953,1.6286736 0 0 1 1.78301,-1.19336 1.5200953,1.6286736 0 0 1 1.19056,1.85646 1.5200953,1.6286736 0 0 1 -1.67907,1.35542 1.5200953,1.6286736 0 0 1 -1.33714,-1.73813"
                sodipodi:end="3.2158089"
                sodipodi:start="3.3904565"
                sodipodi:ry="1.6286736"
                sodipodi:rx="1.5200953"
                sodipodi:cy="157.22838"
                sodipodi:cx="227.14853"
                sodipodi:type="arc"
                id="path851"
                style="opacity:1;fill:#ffffff;fill-opacity:1;stroke:none;stroke-width:0;stroke-miterlimit:4;stroke-dasharray:none"/>
        <path
                style="opacity:1;fill:#ffffff;fill-opacity:1;stroke:none;stroke-width:0;stroke-miterlimit:4;stroke-dasharray:none"
                id="path853"
                sodipodi:type="arc"
                sodipodi:cx="178.36598"
                sodipodi:cy="112.57995"
                sodipodi:rx="1.5200953"
                sodipodi:ry="1.6286736"
                sodipodi:start="3.3904565"
                sodipodi:end="3.2158089"
                d="m 176.89272,112.1788 a 1.5200953,1.6286736 0 0 1 1.783,-1.19336 1.5200953,1.6286736 0 0 1 1.19057,1.85646 1.5200953,1.6286736 0 0 1 -1.67908,1.35542 1.5200953,1.6286736 0 0 1 -1.33714,-1.73813"
                sodipodi:open="true"/>
        <path
                sodipodi:open="true"
                d="m 209.13881,96.055754 a 1.5200953,1.6286736 0 0 1 1.78301,-1.193356 1.5200953,1.6286736 0 0 1 1.19056,1.856457 1.5200953,1.6286736 0 0 1 -1.67908,1.355418 1.5200953,1.6286736 0 0 1 -1.33714,-1.738135"
                sodipodi:end="3.2158089"
                sodipodi:start="3.3904565"
                sodipodi:ry="1.6286736"
                sodipodi:rx="1.5200953"
                sodipodi:cy="96.456902"
                sodipodi:cx="210.61208"
                sodipodi:type="arc"
                id="path855"
                style="opacity:1;fill:#ffffff;fill-opacity:1;stroke:none;stroke-width:0;stroke-miterlimit:4;stroke-dasharray:none"/>
        <path
                style="opacity:1;fill:#ffffff;fill-opacity:1;stroke:none;stroke-width:0;stroke-miterlimit:4;stroke-dasharray:none"
                id="path857"
                sodipodi:type="arc"
                sodipodi:cx="137.53056"
                sodipodi:cy="244.95853"
                sodipodi:rx="1.5200953"
                sodipodi:ry="1.6286736"
                sodipodi:start="3.3904565"
                sodipodi:end="3.2158089"
                d="m 136.0573,244.55738 a 1.5200953,1.6286736 0 0 1 1.78301,-1.19336 1.5200953,1.6286736 0 0 1 1.19056,1.85646 1.5200953,1.6286736 0 0 1 -1.67908,1.35542 1.5200953,1.6286736 0 0 1 -1.33714,-1.73814"
                sodipodi:open="true"/>
        <path
                sodipodi:open="true"
                d="m 133.48451,61.742602 a 1.5200953,1.6286736 0 0 1 1.78301,-1.193357 1.5200953,1.6286736 0 0 1 1.19056,1.856457 1.5200953,1.6286736 0 0 1 -1.67907,1.355418 1.5200953,1.6286736 0 0 1 -1.33714,-1.738134"
                sodipodi:end="3.2158089"
                sodipodi:start="3.3904565"
                sodipodi:ry="1.6286736"
                sodipodi:rx="1.5200953"
                sodipodi:cy="62.143749"
                sodipodi:cx="134.95778"
                sodipodi:type="arc"
                id="path859"
                style="opacity:1;fill:#ffffff;fill-opacity:1;stroke:none;stroke-width:0;stroke-miterlimit:4;stroke-dasharray:none"/>
        <path
                style="opacity:1;fill:#ffffff;fill-opacity:1;stroke:none;stroke-width:0;stroke-miterlimit:4;stroke-dasharray:none"
                id="path861"
                sodipodi:type="arc"
                sodipodi:cx="128.75661"
                sodipodi:cy="124.98229"
                sodipodi:rx="1.5200953"
                sodipodi:ry="1.6286736"
                sodipodi:start="3.3904565"
                sodipodi:end="3.2158089"
                d="m 127.28334,124.58115 a 1.5200953,1.6286736 0 0 1 1.78301,-1.19336 1.5200953,1.6286736 0 0 1 1.19056,1.85646 1.5200953,1.6286736 0 0 1 -1.67907,1.35541 1.5200953,1.6286736 0 0 1 -1.33714,-1.73813"
                sodipodi:open="true"/>
        <path
                style="opacity:1;fill:#ffffff;fill-opacity:1;stroke:none;stroke-width:0;stroke-miterlimit:4;stroke-dasharray:none"
                id="path863"
                sodipodi:type="arc"
                sodipodi:cx="90.829124"
                sodipodi:cy="236.71779"
                sodipodi:rx="2.754245"
                sodipodi:ry="2.9509766"
                sodipodi:start="3.3904565"
                sodipodi:end="3.2158089"
                d="m 88.15973,235.99095 a 2.754245,2.9509766 0 0 1 3.230613,-2.16223 2.754245,2.9509766 0 0 1 2.157168,3.3637 2.754245,2.9509766 0 0 1 -3.0423,2.45587 2.754245,2.9509766 0 0 1 -2.42275,-3.14931"
                sodipodi:open="true"/>
        <path
                sodipodi:open="true"
                d="m 200.37765,211.75371 a 2.754245,2.9509766 0 0 1 3.23061,-2.16223 2.754245,2.9509766 0 0 1 2.15717,3.3637 2.754245,2.9509766 0 0 1 -3.0423,2.45586 2.754245,2.9509766 0 0 1 -2.42275,-3.1493"
                sodipodi:end="3.2158089"
                sodipodi:start="3.3904565"
                sodipodi:ry="2.9509766"
                sodipodi:rx="2.754245"
                sodipodi:cy="212.48055"
                sodipodi:cx="203.04704"
                sodipodi:type="arc"
                id="path865"
                style="opacity:1;fill:#ffffff;fill-opacity:1;stroke:none;stroke-width:0;stroke-miterlimit:4;stroke-dasharray:none"/>
        <path
                style="opacity:1;fill:#ffffff;fill-opacity:1;stroke:none;stroke-width:0;stroke-miterlimit:4;stroke-dasharray:none"
                id="path867"
                sodipodi:type="arc"
                sodipodi:cx="33.54834"
                sodipodi:cy="256.71558"
                sodipodi:rx="2.754245"
                sodipodi:ry="2.9509766"
                sodipodi:start="3.3904565"
                sodipodi:end="3.2158089"
                d="m 30.878945,255.98874 a 2.754245,2.9509766 0 0 1 3.230613,-2.16223 2.754245,2.9509766 0 0 1 2.157169,3.3637 2.754245,2.9509766 0 0 1 -3.042301,2.45586 2.754245,2.9509766 0 0 1 -2.422749,-3.1493"
                sodipodi:open="true"/>
        <path
                sodipodi:open="true"
                d="m 215.67387,272.11179 a 2.754245,2.9509766 0 0 1 3.23061,-2.16223 2.754245,2.9509766 0 0 1 2.15717,3.36369 2.754245,2.9509766 0 0 1 -3.0423,2.45587 2.754245,2.9509766 0 0 1 -2.42275,-3.14931"
                sodipodi:end="3.2158089"
                sodipodi:start="3.3904565"
                sodipodi:ry="2.9509766"
                sodipodi:rx="2.754245"
                sodipodi:cy="272.83862"
                sodipodi:cx="218.34326"
                sodipodi:type="arc"
                id="path869"
                style="opacity:1;fill:#ffffff;fill-opacity:1;stroke:none;stroke-width:0;stroke-miterlimit:4;stroke-dasharray:none"/>
        <path
                sodipodi:open="true"
                d="m 160.65659,210.26627 a 2.754245,2.9509766 0 0 1 3.23062,-2.16223 2.754245,2.9509766 0 0 1 2.15717,3.36369 2.754245,2.9509766 0 0 1 -3.04231,2.45587 2.754245,2.9509766 0 0 1 -2.42274,-3.14931"
                sodipodi:end="3.2158089"
                sodipodi:start="3.3904565"
                sodipodi:ry="2.9509766"
                sodipodi:rx="2.754245"
                sodipodi:cy="210.9931"
                sodipodi:cx="163.32599"
                sodipodi:type="arc"
                id="path871"
                style="opacity:1;fill:#ffffff;fill-opacity:1;stroke:none;stroke-width:0;stroke-miterlimit:4;stroke-dasharray:none"/>
        <path
                style="opacity:1;fill:#ffffff;fill-opacity:1;stroke:none;stroke-width:0;stroke-miterlimit:4;stroke-dasharray:none"
                id="path873"
                sodipodi:type="arc"
                sodipodi:cx="132.35368"
                sodipodi:cy="270.35815"
                sodipodi:rx="2.754245"
                sodipodi:ry="2.9509766"
                sodipodi:start="3.3904565"
                sodipodi:end="3.2158089"
                d="m 129.68429,269.63132 a 2.754245,2.9509766 0 0 1 3.23061,-2.16223 2.754245,2.9509766 0 0 1 2.15717,3.36369 2.754245,2.9509766 0 0 1 -3.0423,2.45587 2.754245,2.9509766 0 0 1 -2.42275,-3.14931"
                sodipodi:open="true"/>
        <path
                sodipodi:open="true"
                d="m 121.08216,197.75497 a 1.5200953,1.6286736 0 0 1 1.78301,-1.19336 1.5200953,1.6286736 0 0 1 1.19056,1.85646 1.5200953,1.6286736 0 0 1 -1.67907,1.35541 1.5200953,1.6286736 0 0 1 -1.33714,-1.73813"
                sodipodi:end="3.2158089"
                sodipodi:start="3.3904565"
                sodipodi:ry="1.6286736"
                sodipodi:rx="1.5200953"
                sodipodi:cy="198.15611"
                sodipodi:cx="122.55543"
                sodipodi:type="arc"
                id="path875"
                style="opacity:1;fill:#ffffff;fill-opacity:1;stroke:none;stroke-width:0;stroke-miterlimit:4;stroke-dasharray:none"/>
        <path
                style="opacity:1;fill:#ffffff;fill-opacity:1;stroke:none;stroke-width:0;stroke-miterlimit:4;stroke-dasharray:none"
                id="path877"
                sodipodi:type="arc"
                sodipodi:cx="122.55543"
                sodipodi:cy="198.15611"
                sodipodi:rx="1.5200953"
                sodipodi:ry="1.6286736"
                sodipodi:start="3.3904565"
                sodipodi:end="3.2158089"
                d="m 121.08216,197.75497 a 1.5200953,1.6286736 0 0 1 1.78301,-1.19336 1.5200953,1.6286736 0 0 1 1.19056,1.85646 1.5200953,1.6286736 0 0 1 -1.67907,1.35541 1.5200953,1.6286736 0 0 1 -1.33714,-1.73813"
                sodipodi:open="true"/>
        <path
                sodipodi:open="true"
                d="m 121.08216,197.75497 a 1.5200953,1.6286736 0 0 1 1.78301,-1.19336 1.5200953,1.6286736 0 0 1 1.19056,1.85646 1.5200953,1.6286736 0 0 1 -1.67907,1.35541 1.5200953,1.6286736 0 0 1 -1.33714,-1.73813"
                sodipodi:end="3.2158089"
                sodipodi:start="3.3904565"
                sodipodi:ry="1.6286736"
                sodipodi:rx="1.5200953"
                sodipodi:cy="198.15611"
                sodipodi:cx="122.55543"
                sodipodi:type="arc"
                id="path879"
                style="opacity:1;fill:#ffffff;fill-opacity:1;stroke:none;stroke-width:0;stroke-miterlimit:4;stroke-dasharray:none"/>
        <path
                style="opacity:1;fill:#ffffff;fill-opacity:1;stroke:none;stroke-width:0;stroke-miterlimit:4;stroke-dasharray:none"
                id="path881"
                sodipodi:type="arc"
                sodipodi:cx="33.688309"
                sodipodi:cy="226.80406"
                sodipodi:rx="1.5200953"
                sodipodi:ry="1.6286736"
                sodipodi:start="3.3904565"
                sodipodi:end="3.2158089"
                d="m 32.215043,226.40291 a 1.5200953,1.6286736 0 0 1 1.783008,-1.19335 1.5200953,1.6286736 0 0 1 1.190563,1.85646 1.5200953,1.6286736 0 0 1 -1.679077,1.35541 1.5200953,1.6286736 0 0 1 -1.337139,-1.73813"
                sodipodi:open="true"/>
        <path
                sodipodi:open="true"
                d="m 245.02841,56.853812 a 1.5200953,1.6286736 0 0 1 1.78301,-1.193357 1.5200953,1.6286736 0 0 1 1.19056,1.856457 1.5200953,1.6286736 0 0 1 -1.67907,1.355418 1.5200953,1.6286736 0 0 1 -1.33714,-1.738134"
                sodipodi:end="3.2158089"
                sodipodi:start="3.3904565"
                sodipodi:ry="1.6286736"
                sodipodi:rx="1.5200953"
                sodipodi:cy="57.254959"
                sodipodi:cx="246.50168"
                sodipodi:type="arc"
                id="path883"
                style="opacity:1;fill:#ffffff;fill-opacity:1;stroke:none;stroke-width:0;stroke-miterlimit:4;stroke-dasharray:none"/>
        <path
                style="opacity:1;fill:#ffffff;fill-opacity:1;stroke:none;stroke-width:0;stroke-miterlimit:4;stroke-dasharray:none"
                id="path885"
                sodipodi:type="arc"
                sodipodi:cx="173.42017"
                sodipodi:cy="248.72852"
                sodipodi:rx="1.5200953"
                sodipodi:ry="1.6286736"
                sodipodi:start="3.3904565"
                sodipodi:end="3.2158089"
                d="m 171.9469,248.32737 a 1.5200953,1.6286736 0 0 1 1.78301,-1.19336 1.5200953,1.6286736 0 0 1 1.19056,1.85646 1.5200953,1.6286736 0 0 1 -1.67908,1.35542 1.5200953,1.6286736 0 0 1 -1.33713,-1.73814"
                sodipodi:open="true"/>
        <path
                sodipodi:open="true"
                d="m 155.57663,180.50773 a 1.5200953,1.6286736 0 0 1 1.78301,-1.19336 1.5200953,1.6286736 0 0 1 1.19056,1.85646 1.5200953,1.6286736 0 0 1 -1.67908,1.35542 1.5200953,1.6286736 0 0 1 -1.33713,-1.73814"
                sodipodi:end="3.2158089"
                sodipodi:start="3.3904565"
                sodipodi:ry="1.6286736"
                sodipodi:rx="1.5200953"
                sodipodi:cy="180.90887"
                sodipodi:cx="157.0499"
                sodipodi:type="arc"
                id="path887"
                style="opacity:1;fill:#ffffff;fill-opacity:1;stroke:none;stroke-width:0;stroke-miterlimit:4;stroke-dasharray:none"/>
        <path
                style="opacity:1;fill:#ffffff;fill-opacity:1;stroke:none;stroke-width:0;stroke-miterlimit:4;stroke-dasharray:none"
                id="path889"
                sodipodi:type="arc"
                sodipodi:cx="95.581459"
                sodipodi:cy="67.311653"
                sodipodi:rx="3.0694234"
                sodipodi:ry="3.2886679"
                sodipodi:start="3.3904565"
                sodipodi:end="3.2158089"
                d="m 92.606596,66.501644 a 3.0694234,3.2886679 0 0 1 3.600304,-2.409662 3.0694234,3.2886679 0 0 1 2.404021,3.748615 3.0694234,3.2886679 0 0 1 -3.390443,2.736902 3.0694234,3.2886679 0 0 1 -2.699993,-3.509694"
                sodipodi:open="true"/>
        <path
                style="opacity:1;fill:#ffffff;fill-opacity:1;stroke:none;stroke-width:0;stroke-miterlimit:4;stroke-dasharray:none"
                id="path891"
                sodipodi:type="arc"
                sodipodi:cx="163.70757"
                sodipodi:cy="78.26815"
                sodipodi:rx="0.74494886"
                sodipodi:ry="0.79815948"
                sodipodi:start="3.3904565"
                sodipodi:end="3.2158089"
                d="m 162.98557,78.071561 a 0.74494886,0.79815948 0 0 1 0.87379,-0.584825 0.74494886,0.79815948 0 0 1 0.58346,0.909789 0.74494886,0.79815948 0 0 1 -0.82286,0.664246 0.74494886,0.79815948 0 0 1 -0.65529,-0.851803"
                sodipodi:open="true"/>
        <path
                sodipodi:open="true"
                d="m 91.982141,89.957136 a 0.74494886,0.79815948 0 0 1 0.873793,-0.584825 0.74494886,0.79815948 0 0 1 0.583456,0.909788 0.74494886,0.79815948 0 0 1 -0.82286,0.664246 0.74494886,0.79815948 0 0 1 -0.655288,-0.851802"
                sodipodi:end="3.2158089"
                sodipodi:start="3.3904565"
                sodipodi:ry="0.79815948"
                sodipodi:rx="0.74494886"
                sodipodi:cy="90.153725"
                sodipodi:cx="92.70414"
                sodipodi:type="arc"
                id="path893"
                style="opacity:1;fill:#ffffff;fill-opacity:1;stroke:none;stroke-width:0;stroke-miterlimit:4;stroke-dasharray:none"/>
        <path
                style="opacity:1;fill:#ffffff;fill-opacity:1;stroke:none;stroke-width:0;stroke-miterlimit:4;stroke-dasharray:none"
                id="path895"
                sodipodi:type="arc"
                sodipodi:cx="184.06807"
                sodipodi:cy="69.06974"
                sodipodi:rx="0.74494886"
                sodipodi:ry="0.79815948"
                sodipodi:start="3.3904565"
                sodipodi:end="3.2158089"
                d="m 183.34607,68.873151 a 0.74494886,0.79815948 0 0 1 0.87379,-0.584825 0.74494886,0.79815948 0 0 1 0.58346,0.909789 0.74494886,0.79815948 0 0 1 -0.82286,0.664246 0.74494886,0.79815948 0 0 1 -0.65529,-0.851803"
                sodipodi:open="true"/>
        <path
                sodipodi:open="true"
                d="m 47.126996,84.376081 a 0.74494886,0.79815948 0 0 1 0.873794,-0.584825 0.74494886,0.79815948 0 0 1 0.583455,0.909789 0.74494886,0.79815948 0 0 1 -0.82286,0.664246 0.74494886,0.79815948 0 0 1 -0.655288,-0.851803"
                sodipodi:end="3.2158089"
                sodipodi:start="3.3904565"
                sodipodi:ry="0.79815948"
                sodipodi:rx="0.74494886"
                sodipodi:cy="84.57267"
                sodipodi:cx="47.848995"
                sodipodi:type="arc"
                id="path897"
                style="opacity:1;fill:#ffffff;fill-opacity:1;stroke:none;stroke-width:0;stroke-miterlimit:4;stroke-dasharray:none"/>
        <path
                style="opacity:1;fill:#ffffff;fill-opacity:1;stroke:none;stroke-width:0;stroke-miterlimit:4;stroke-dasharray:none"
                id="path899"
                sodipodi:type="arc"
                sodipodi:cx="132.80505"
                sodipodi:cy="100.59236"
                sodipodi:rx="0.74494886"
                sodipodi:ry="0.79815948"
                sodipodi:start="3.3904565"
                sodipodi:end="3.2158089"
                d="m 132.08305,100.39577 a 0.74494886,0.79815948 0 0 1 0.8738,-0.584823 0.74494886,0.79815948 0 0 1 0.58345,0.909793 0.74494886,0.79815948 0 0 1 -0.82286,0.66424 0.74494886,0.79815948 0 0 1 -0.65528,-0.8518"
                sodipodi:open="true"/>
    </g>
</svg>
